<?xml version="1.0" encoding="utf-8"?>
<!-- Generator: Adobe Illustrator 27.9.0, SVG Export Plug-In . SVG Version: 6.00 Build 0)  -->
<svg version="1.1" id="Layer_1" xmlns="http://www.w3.org/2000/svg" xmlns:xlink="http://www.w3.org/1999/xlink" x="0px" y="0px"
	 viewBox="0 0 198.43 198.43" style="enable-background:new 0 0 198.43 198.43;" xml:space="preserve">
<style type="text/css">
	.st0{fill:none;stroke:#E24444;stroke-width:3;stroke-linecap:round;stroke-linejoin:round;stroke-miterlimit:10;}
	.st1{fill:none;stroke:#1A936F;stroke-width:3;stroke-miterlimit:10;}
	.st2{fill:none;stroke:#F98348;stroke-width:3;stroke-miterlimit:10;}
	
		.st3{clip-path:url(#SVGID_00000093869498890544394800000002134213082471893637_);fill:url(#SVGID_00000135686684749876657080000002073457833014787720_);}
	
		.st4{clip-path:url(#SVGID_00000014595135087607285100000017845739322014822324_);fill:url(#SVGID_00000150810977979513053420000013147672248377999255_);}
	.st5{fill:#1A936F;}
</style>
<g>
	<g>
		<g>
			<path class="st1" d="M144.35,110.31c0.03,3.59-1.44,9.39-9.25,11.37c-10.19,2.57-19.57-1.12-35.27-9.66
				c16.86-7.88,24.21-13.6,34.55-11.74C142.31,101.71,144.13,106.73,144.35,110.31z"/>
			<path class="st1" d="M91.8,39.85c-5.14,4.39-3.16,11.77-2.7,13.28c2.12,6.92,8.74,9.47,9.86,9.75
				c7.71,1.93,14.13-1.66,14.66-2.04c4.43-3.18,6.25-8.34,6.23-12.95c-0.02-4.12-1.6-7.21-3.69-9.97
				c-3.98-5.25-9.28-9.55-17.36-17.74c-3.62-3.67-3.9-6.79-4.02-9.15c-0.25-4.76,2.47-7.62,3.96-9.16h0.32
				c1.49,1.54,4.21,4.4,3.96,9.16c-0.13,2.36-0.41,5.48-4.02,9.15c-8.08,8.2-13.38,12.49-17.36,17.74c-2.1,2.77-3.67,5.86-3.69,9.97
				c-0.03,4.61,1.8,9.77,6.23,12.95c0.53,0.38,6.94,3.97,14.66,2.04c1.12-0.28,7.75-2.83,9.86-9.75c0.46-1.51,2.44-8.89-2.7-13.28
				C102.04,36.48,95.75,36.48,91.8,39.85z"/>
			<path class="st1" d="M116.3,103.57c-1.62-2.06-6.78-9.96-7.05-16.41c-0.08-1.82-0.27-5.03,2.14-9.78
				c1.86-3.68,5.08-6.06,10.33-12.67c2.64-3.32,4.85-6.7,5.28-11.17c0.76-7.92-2.04-13.09-4.16-15.65
				c-7.49-9.03-19.76-16.24-23.48-17.73"/>
			<g>
				<path class="st1" d="M53.28,110.31c-0.03,3.59,1.44,9.39,9.25,11.37c10.19,2.57,19.57-1.12,35.27-9.66
					c-16.86-7.88-24.21-13.6-34.55-11.74C55.32,101.71,53.5,106.73,53.28,110.31z"/>
				<path class="st1" d="M81.33,103.57c1.62-2.06,6.78-9.96,7.05-16.41c0.08-1.82,0.27-5.03-2.14-9.78
					c-1.86-3.68-5.08-6.06-10.33-12.67c-2.64-3.32-4.85-6.7-5.28-11.17c-0.76-7.92,2.04-13.09,4.16-15.65
					c7.49-9.03,19.76-16.24,23.48-17.73"/>
			</g>
		</g>
	</g>
	<g>
		<g>
			<path class="st5" d="M65.14,194.85l-1.44-8.64c0-0.3-0.18-0.45-0.54-0.45H51.73c-0.36,0-0.54,0.15-0.54,0.45l-1.44,8.64
				c-0.06,0.66-0.45,0.99-1.17,0.99H38.05c-0.78,0-1.08-0.39-0.9-1.17l13.23-60.84c0.12-0.66,0.51-0.99,1.17-0.99H63.7
				c0.66,0,1.05,0.33,1.17,0.99l13.14,60.84l0.09,0.36c0,0.54-0.33,0.81-0.99,0.81h-10.8C65.59,195.84,65.2,195.51,65.14,194.85z
				 M53.35,175.95h8.1c0.3,0,0.42-0.15,0.36-0.45l-4.23-24.57c-0.06-0.18-0.15-0.27-0.27-0.27c-0.12,0-0.21,0.09-0.27,0.27
				l-4.05,24.57C52.99,175.8,53.11,175.95,53.35,175.95z"/>
			<path class="st5" d="M114.37,191.34c-3.36,3-7.71,4.5-13.05,4.5H84.31c-0.3,0-0.56-0.1-0.76-0.32c-0.21-0.21-0.32-0.46-0.32-0.76
				v-60.84c0-0.3,0.1-0.55,0.32-0.76c0.21-0.21,0.46-0.32,0.76-0.32h15.03c6,0,10.69,1.44,14.08,4.32
				c3.39,2.88,5.08,7.17,5.08,12.87c0,5.94-2.04,10.26-6.12,12.96c-0.24,0.18-0.27,0.36-0.09,0.54c4.74,3.36,7.11,8.34,7.11,14.94
				C119.41,184.05,117.73,188.34,114.37,191.34z M95.92,144.18v14.13c0,0.3,0.15,0.45,0.45,0.45h3.24c2.04,0,3.63-0.64,4.77-1.93
				c1.14-1.29,1.71-3.11,1.71-5.45c0-2.46-0.56-4.35-1.67-5.67c-1.11-1.32-2.72-1.98-4.82-1.98h-3.24
				C96.07,143.73,95.92,143.88,95.92,144.18z M105.01,182.7c1.14-1.44,1.71-3.48,1.71-6.12c0-2.64-0.57-4.74-1.71-6.3
				c-1.14-1.56-2.67-2.34-4.59-2.34h-4.05c-0.3,0-0.45,0.15-0.45,0.45v16.02c0,0.3,0.15,0.45,0.45,0.45h3.96
				C102.31,184.86,103.87,184.14,105.01,182.7z"/>
			<path class="st5" d="M129.53,191.75c-3.27-3.21-4.91-7.52-4.91-12.92v-29.16c0-5.34,1.63-9.6,4.91-12.78
				c3.27-3.18,7.61-4.77,13-4.77c5.46,0,9.82,1.59,13.1,4.77c3.27,3.18,4.9,7.44,4.9,12.78v0.99c0,0.3-0.11,0.55-0.31,0.76
				c-0.21,0.21-0.47,0.32-0.77,0.32l-10.53,0.45c-0.72,0-1.08-0.33-1.08-0.99v-2.34c0-1.74-0.48-3.15-1.44-4.23
				c-0.96-1.08-2.25-1.62-3.87-1.62c-1.56,0-2.82,0.54-3.78,1.62c-0.96,1.08-1.44,2.49-1.44,4.23v31.05c0,1.74,0.48,3.14,1.44,4.18
				c0.96,1.05,2.22,1.58,3.78,1.58c1.62,0,2.91-0.52,3.87-1.58c0.96-1.05,1.44-2.44,1.44-4.18v-2.43c0-0.3,0.1-0.55,0.31-0.76
				c0.21-0.21,0.46-0.32,0.77-0.32l10.53,0.45c0.3,0,0.55,0.11,0.77,0.32c0.21,0.21,0.31,0.46,0.31,0.76v0.9
				c0,5.4-1.65,9.71-4.95,12.92c-3.3,3.21-7.65,4.81-13.05,4.81C137.14,196.56,132.8,194.96,129.53,191.75z"/>
		</g>
	</g>
</g>
</svg>
